<?xml version="1.0" standalone="no"?>
<!DOCTYPE svg PUBLIC "-//W3C//DTD SVG 20010904//EN"
 "http://www.w3.org/TR/2001/REC-SVG-20010904/DTD/svg10.dtd">
<svg version="1.0" xmlns="http://www.w3.org/2000/svg"
 width="400.000000pt" height="400.000000pt" viewBox="0 0 400.000000 400.000000"
 preserveAspectRatio="xMidYMid meet">

<g transform="translate(0.000000,400.000000) scale(0.100000,-0.100000)"
fill="#000000" stroke="none">
<path d="M0 2000 l0 -2000 2000 0 2000 0 0 2000 0 2000 -2000 0 -2000 0 0
-2000z m2736 732 c28 -19 34 -50 23 -129 -15 -111 -21 -115 -196 -143 l-143
-23 0 -384 0 -384 105 -205 c58 -112 105 -209 105 -214 0 -6 -11 -22 -25 -35
-22 -23 -32 -25 -113 -25 -55 0 -94 5 -104 13 -9 6 -63 98 -120 202 l-103 190
-3 398 c-2 218 -6 397 -10 397 -4 0 -86 -13 -182 -30 -96 -16 -181 -30 -187
-30 -10 0 -13 -105 -13 -492 0 -377 -3 -499 -13 -518 -17 -33 -144 -120 -176
-120 -13 0 -35 10 -48 22 l-23 21 0 519 c0 413 -3 518 -13 518 -7 0 -75 -11
-151 -24 -194 -34 -212 -23 -195 120 7 63 14 83 32 99 20 18 108 35 523 104
274 46 596 101 714 121 215 38 295 46 316 32z"/>
</g>
</svg>
